<svg width="217" height="23" viewBox="0 0 217 23" fill="none" xmlns="http://www.w3.org/2000/svg">
<path id="Union" fill-rule="evenodd" clip-rule="evenodd" d="M81.9079 0C75.3047 0 70.1941 4.50431 70.1941 11.467C70.1941 18.7442 75.3047 22.9974 81.9079 22.9974C88.5112 22.9974 93.6218 18.4296 93.6218 11.467C93.6218 4.50431 88.5112 0 81.9079 0ZM81.8478 6.80405C84.4959 6.80405 86.2395 8.7575 86.2395 11.467C86.2395 14.2081 84.4985 16.1616 81.8478 16.1616C79.1971 16.1616 77.4535 14.1764 77.4535 11.467C77.4535 8.7575 79.1997 6.80405 81.8478 6.80405ZM13.366 0.473164H0V22.5268H7.16528V15.2179H13.366C18.1027 15.2179 20.9992 12.3816 20.9992 7.84553C20.9992 3.3095 18.1027 0.473164 13.366 0.473164ZM13.7711 7.84289C13.7711 9.07206 12.9608 9.54522 11.9648 9.54522V9.54258H7.16789V6.14056H11.9648C12.9608 6.14056 13.7711 6.55028 13.7711 7.84289ZM37.9177 0.473164H26.0156L20.5338 22.5268H27.6678L28.5095 19.0614H35.4264L36.2682 22.5268H43.4021L37.9177 0.473164ZM34.1168 13.6425H29.7878L31.5942 6.1432H32.3104L34.1168 13.6425ZM45.428 0.473164H52.9044L60.9428 12.4133H61.1598V0.473164H67.8571V22.5268H60.3807L52.3737 10.6184H52.1254V22.5268H45.428V0.473164ZM95.9588 0.473164H109.325C114.062 0.473164 116.958 3.3095 116.958 7.84553C116.958 12.3816 114.062 15.2179 109.325 15.2179H103.124V22.5268H95.9588V0.473164ZM107.924 9.54522C108.92 9.54522 109.73 9.07206 109.73 7.84289C109.73 6.55028 108.92 6.14056 107.924 6.14056H103.127V9.54258H107.924V9.54522ZM118.048 6.1432H124.28V22.5268H131.445V6.1432H137.677V0.473164H118.048V6.1432ZM139.703 0.473164H146.869V22.5268H139.703V0.473164ZM160.64 0C154.003 0 149.206 4.31399 149.206 11.467H149.203C149.203 18.6173 154 22.9974 160.637 22.9974C163.91 22.9974 166.715 21.7365 168.49 19.783L164.252 14.6787C163.379 15.3739 162.258 16.003 160.794 16.003C158.363 16.003 156.4 14.3007 156.4 11.467C156.4 8.63326 158.271 6.99437 160.794 6.99437C162.321 6.99437 163.442 7.71865 164.315 8.44294L168.71 3.49718C166.966 1.32433 164.098 0 160.64 0ZM168.801 11.467C168.801 4.50431 173.912 0 180.515 0C187.118 0 192.229 4.50431 192.229 11.467C192.229 18.4296 187.118 22.9974 180.515 22.9974C173.912 22.9974 168.801 18.7442 168.801 11.467ZM184.846 11.467C184.846 8.7575 183.103 6.80405 180.455 6.80405C177.807 6.80405 176.06 8.7575 176.06 11.467C176.06 14.1764 177.804 16.1616 180.455 16.1616C183.105 16.1616 184.846 14.2081 184.846 11.467ZM202.047 0.473164H194.571V22.5268H201.268V10.6184H201.517L209.524 22.5268H217V0.473164H210.303V12.4133H210.086L202.047 0.473164Z" fill="url(#paint0_linear_18_1177)"/>
<defs>
<linearGradient id="paint0_linear_18_1177" x1="108.5" y1="0" x2="108.5" y2="22.9974" gradientUnits="userSpaceOnUse">
<stop offset="0.64" stop-color="#8F817E"/>
<stop offset="0.64" stop-color="#292524"/>
</linearGradient>
</defs>
</svg>
